# xmcd
#
# Track frame offsets:
#	150
#	17148
#	31438
#	42535
#	57305
#	70718
#	79053
#	91718
#	112928
#	140125
#	154980
#
# Disc length: 2217 seconds
#
# Revision: 2
# Processed by: cddbd v1.4PL0 Copyright (c) Steve Scherf et al.
# Submitted via: MusicWizard 6.0.0
#
DISCID=8f08a70b
DTITLE=Dr. John - A NIght In New Orleans
DYEAR=1998
DGENRE=New Orleans mod
TTITLE0=The Time Had Come
TTITLE1=Loser For You Baby
TTITLE2=The Ear is On Strike
TTITLE3=A Little Closer to Home
TTITLE4=I Pulled The Cover Off You Two Lovers
TTITLE5=New Orleans
TTITLE6=Go Ahead On
TTITLE7=Just Like A MIrror
TTITLE8=Bring Your Love
TTITLE9=Make Your Own
TTITLE10=Bald Head
EXTD=\\t
EXTT0=
EXTT1=
EXTT2=
EXTT3=
EXTT4=
EXTT5=
EXTT6=
EXTT7=
EXTT8=
EXTT9=
EXTT10=
PLAYORDER=
